# xmcd
#
# Track frame offsets: 
#        150
#        11624
#        25473
#        34929
#        45381
#        56234
#        67832
#        82140
#        95944
#        110545
#        129715
#        142227
#        154281
#        171673
#        185794
#        199291
#        212500
#        221228
#        237468
#        249291
#
# Disc length: 3470 seconds
#
# Revision: 0
# Processed by: cddbd v1.5.2PL0 Copyright (c) Steve Scherf et al.
# Submitted via: ExactAudioCopy v0.99pb4
#
DISCID=400d8c14
DTITLE=Various Artist - 100 Instrumentale Klassiekers - Disk 3
DYEAR=2008
DGENRE=Instrumental
TTITLE0=André Brasseur - Big Fat Spiritual
TTITLE1=Francis Bay - Manhattan Spiritual
TTITLE2=Bert Kaempfert And His Orchestra - Tijuana Taxi
TTITLE3=Booker T and The MG's - Soul Limbo
TTITLE4=Bert Kaempfert - Afrikaan Beat
TTITLE5=Paul Mauriat - Love Is Blue
TTITLE6=Waldo De Los Rios - Symphony Nr. 40
TTITLE7=Thijs Van Leer - Rondo
TTITLE8=Ponte Vecchio - Rondo Veneziano
TTITLE9=Berdien Stenberg - Rondo Russo
TTITLE10=Sweet People - Et Les Oiseaux Chantaient
TTITLE11=Henry Mancini - Moon River
TTITLE12=Nino Rota - The Godfather Theme
TTITLE13=Nini Rosso - Il Silenzio
TTITLE14=Perez Prado - Cherry Pink And Apple Blossom White
TTITLE15=Tommy Dorsey - Tea For Two Cha Cha
TTITLE16=David Rose - The Stripper
TTITLE17=Emerson, Lake and Palmer - Peter Gunn
TTITLE18=Pierre Henry - Psyche Rock
TTITLE19=Johan Hoogewijs - Commissaris Witse
EXTD=
EXTT0=
EXTT1=
EXTT2=
EXTT3=
EXTT4=
EXTT5=
EXTT6=
EXTT7=
EXTT8=
EXTT9=
EXTT10=
EXTT11=
EXTT12=
EXTT13=
EXTT14=
EXTT15=
EXTT16=
EXTT17=
EXTT18=
EXTT19=
PLAYORDER=
